# xmcd
#
# Track frame offsets: 
#        150
#        18470
#        43690
#        63255
#        82367
#        99552
#        121967
#        140517
#        161830
#        173542
#        191795
#        210592
#
# Disc length: 2993 seconds
#
# Revision: 2
# Processed by: cddbd v1.5.2PL0 Copyright (c) Steve Scherf et al.
# Submitted via: ExactAudioCopy v0.99pb3
#
DISCID=a90baf0c
DTITLE=Silver Convention - The Best Of Silver Convention
DYEAR=1900
DGENRE=
TTITLE0=Get Up And Boogie
TTITLE1=Fly Robin Fly
TTITLE2=Save Me
TTITLE3=Tiger Baby
TTITLE4=Lady Bump
TTITLE5=I Like It
TTITLE6=No No Joe
TTITLE7=San Francisco Hustle
TTITLE8=Oh What A Night
TTITLE9=Always Another Girl
TTITLE10=Chains Of Love
TTITLE11=Thank You Mr DJ
EXTD=
EXTT0=
EXTT1=
EXTT2=
EXTT3=
EXTT4=
EXTT5=
EXTT6=
EXTT7=
EXTT8=
EXTT9=
EXTT10=
EXTT11=
PLAYORDER=
